<svg width="2094" height="1753" viewBox="0 0 2094 1753" fill="none" xmlns="http://www.w3.org/2000/svg">
<g clip-path="url(#clip0)">
<path opacity="0.1" d="M210.622 175.528C197.589 181.611 184.213 189.419 177.051 203.107C169.466 217.566 170.374 235.521 171.786 252.249C184.092 397.34 216.513 551.646 160.528 683.071C133.353 746.832 87.8999 797.927 51.7471 855.831C15.5942 913.736 -11.702 986.031 5.08328 1054.15C25.5806 1137.39 102.083 1183.53 153.649 1247.59C187.401 1289.47 211.066 1340.36 242.558 1384.42C274.051 1428.47 317.204 1467.29 367.479 1469.88C439.785 1473.62 498.614 1403.37 569.507 1387.09C642.136 1370.43 715.269 1412.84 774.158 1463.59C833.048 1514.34 886.611 1575.83 955.225 1607.52C1031 1642.55 1116.42 1637.19 1196.19 1658.23C1268.82 1677.41 1335.68 1718.2 1407.78 1739.95C1479.89 1761.69 1564.4 1760.38 1620.26 1704.83C1693.07 1632.2 1687.34 1502.81 1733.84 1406.73C1777.04 1317.46 1861.59 1264.16 1918.5 1185.24C2020.91 1043.19 2017.56 826.073 1930.61 671.586C1843.65 517.098 1686.15 423.557 1525.1 399.201C1452.47 388.237 1377.68 389.736 1307.86 364.79C1120.96 298.055 1009.74 58.9471 818.926 9.19149C697.636 -22.3824 579.675 32.2988 476.361 99.6005C386.685 158.027 303.949 131.969 210.622 175.528Z" fill="#272727"/>
<path d="M392.759 644.258C392.759 644.258 323.903 717.371 250.003 719.55C218.971 720.245 188.976 732.248 164.524 753.757C152.965 764.037 142.268 775.487 132.567 787.964" stroke="#535461" stroke-width="2" stroke-miterlimit="10"/>
<path d="M85.9639 789.757C95.8898 784.082 133.778 787.85 133.778 787.85C133.778 787.85 114.128 824.509 104.202 830.183C101.824 831.769 99.1831 832.788 96.4414 833.177C93.6997 833.567 90.9161 833.319 88.2632 832.448C85.6103 831.577 83.1447 830.102 81.0194 828.115C78.894 826.128 77.1542 823.67 75.9078 820.895C74.6614 818.12 73.9351 815.086 73.7738 811.983C73.6124 808.879 74.0196 805.77 74.9701 802.851C75.9205 799.931 77.3939 797.263 79.2989 795.01C81.204 792.758 83.5 790.97 86.0446 789.757H85.9639Z" fill="#272727"/>
<path d="M125.849 724.952C136.925 726.269 166.904 752.599 166.904 752.599C166.904 752.599 132.607 771.348 121.633 770.054C116.498 769.181 111.86 766.115 108.684 761.492C105.508 756.869 104.039 751.047 104.583 745.236C105.126 739.425 107.64 734.074 111.601 730.296C115.562 726.518 120.665 724.604 125.849 724.952V724.952Z" fill="#272727"/>
<path d="M220.427 672.722C229.385 680.145 243.467 719.913 243.467 719.913C243.467 719.913 205.518 716.667 196.561 709.267C192.524 705.597 189.899 700.317 189.232 694.526C188.566 688.734 189.909 682.877 192.982 678.17C196.055 673.464 200.623 670.272 205.734 669.258C210.846 668.243 216.108 669.484 220.427 672.722V672.722Z" fill="#272727"/>
<path d="M299.895 651.363C309.841 656.969 329.693 693.492 329.693 693.492C329.693 693.492 291.805 697.509 281.859 691.903C279.35 690.67 277.089 688.875 275.216 686.628C273.343 684.38 271.896 681.727 270.964 678.831C270.031 675.934 269.633 672.854 269.792 669.778C269.952 666.702 270.666 663.695 271.892 660.94C273.117 658.185 274.829 655.74 276.922 653.753C279.014 651.766 281.445 650.279 284.065 649.383C286.685 648.487 289.439 648.201 292.161 648.541C294.882 648.881 297.514 649.841 299.895 651.363V651.363Z" fill="#272727"/>
<path d="M187.987 793.933C191.295 781.971 181.612 740.569 181.612 740.569C181.612 740.569 152.802 768.534 149.494 780.496C148.561 783.383 148.159 786.453 148.313 789.52C148.466 792.587 149.171 795.587 150.384 798.339C151.598 801.09 153.296 803.536 155.374 805.528C157.453 807.52 159.869 809.016 162.477 809.926C165.085 810.836 167.829 811.142 170.545 810.824C173.26 810.506 175.89 809.571 178.275 808.075C180.66 806.58 182.751 804.556 184.42 802.125C186.089 799.694 187.303 796.907 187.987 793.933V793.933Z" fill="#272727"/>
<path d="M280.649 767.535C280.649 755.005 260.373 718.778 260.373 718.778C260.373 718.778 240.32 755.096 240.34 767.671C240.356 773.691 242.497 779.457 246.292 783.701C250.086 787.946 255.224 790.32 260.575 790.302C265.925 790.284 271.051 787.875 274.823 783.605C278.595 779.336 280.705 773.555 280.689 767.535H280.649Z" fill="#272727"/>
<path d="M367.581 728.13C369.437 715.782 354.911 676.218 354.911 676.218C354.911 676.218 329.673 708.268 327.837 720.617C327.217 726.41 328.604 732.249 331.709 736.922C334.814 741.595 339.4 744.744 344.514 745.713C349.628 746.683 354.878 745.4 359.173 742.13C363.468 738.86 366.479 733.854 367.581 728.153V728.13Z" fill="#272727"/>
<path d="M482.233 450.638C482.233 450.638 399.295 399.384 374.642 320.869C364.513 287.853 345.137 259.426 319.424 239.857C307.154 230.671 294.161 222.769 280.608 216.251" stroke="#535461" stroke-width="2" stroke-miterlimit="10"/>
<path d="M264.872 166.881C272.72 175.756 281.173 217.499 281.173 217.499C281.173 217.499 244.133 207.739 236.285 198.841C232.819 194.511 230.966 188.847 231.11 183.022C231.254 177.197 233.383 171.657 237.057 167.55C240.73 163.443 245.667 161.083 250.845 160.958C256.023 160.834 261.045 162.954 264.872 166.881V166.881Z" fill="#272727"/>
<path d="M331.953 189.648C334.252 201.905 321.199 242.105 321.199 242.105C321.199 242.105 294.831 211.257 292.531 198.977C291.849 196.007 291.708 192.913 292.118 189.88C292.528 186.847 293.48 183.94 294.917 181.332C296.354 178.725 298.245 176.473 300.477 174.711C302.709 172.95 305.235 171.715 307.903 171.083C310.571 170.45 313.325 170.433 315.999 171.031C318.673 171.629 321.212 172.831 323.461 174.564C325.711 176.297 327.625 178.526 329.088 181.114C330.551 183.703 331.532 186.598 331.973 189.625L331.953 189.648Z" fill="#272727"/>
<path d="M405.186 274.972C401.676 286.844 372.362 314.15 372.362 314.15C372.362 314.15 363.445 272.544 366.955 260.649C368.644 254.93 372.282 250.2 377.07 247.499C381.858 244.798 387.403 244.348 392.486 246.247C397.569 248.146 401.774 252.24 404.174 257.627C406.575 263.014 406.975 269.253 405.287 274.972H405.186Z" fill="#272727"/>
<path d="M447.714 353.396C446.04 365.767 421.245 398.249 421.245 398.249C421.245 398.249 406.195 358.935 407.869 346.564C408.148 343.507 408.976 340.545 410.303 337.859C411.63 335.172 413.427 332.817 415.587 330.935C417.747 329.053 420.224 327.685 422.868 326.912C425.512 326.14 428.268 325.98 430.968 326.441C433.669 326.903 436.258 327.977 438.579 329.597C440.9 331.218 442.904 333.353 444.47 335.871C446.035 338.389 447.13 341.239 447.688 344.248C448.246 347.256 448.255 350.361 447.714 353.374V353.396Z" fill="#272727"/>
<path d="M292.693 277.401C303.829 277.265 335.866 254.158 335.866 254.158C335.866 254.158 303.365 231.913 292.229 232.049C286.878 232.118 281.771 234.576 278.031 238.882C274.291 243.188 272.225 248.989 272.286 255.009C272.348 261.029 274.532 266.775 278.359 270.983C282.186 275.191 287.342 277.516 292.693 277.447V277.401Z" fill="#272727"/>
<path d="M343.452 368.514C354.024 364.632 378.455 331.81 378.455 331.81C378.455 331.81 341.515 321.527 330.944 325.409C328.335 326.247 325.903 327.668 323.794 329.587C321.684 331.506 319.941 333.885 318.667 336.58C317.394 339.275 316.616 342.231 316.381 345.272C316.147 348.313 316.459 351.376 317.301 354.278C318.143 357.179 319.496 359.86 321.279 362.16C323.063 364.46 325.241 366.332 327.682 367.663C330.123 368.994 332.778 369.757 335.488 369.907C338.198 370.058 340.906 369.591 343.452 368.537V368.514Z" fill="#272727"/>
<path d="M403.572 449.457C414.588 447.642 443.599 419.949 443.599 419.949C443.599 419.949 408.737 402.789 397.742 404.605C395.034 404.919 392.41 405.846 390.029 407.331C387.648 408.816 385.559 410.828 383.888 413.245C382.216 415.662 380.996 418.435 380.302 421.397C379.608 424.359 379.454 427.448 379.849 430.478C380.244 433.509 381.18 436.418 382.601 439.03C384.022 441.643 385.898 443.905 388.116 445.681C390.335 447.456 392.849 448.708 395.509 449.361C398.169 450.014 400.918 450.054 403.592 449.48L403.572 449.457Z" fill="#272727"/>
<path d="M1052.99 1694.26C1456.34 1694.26 1783.31 1326.37 1783.31 872.562C1783.31 418.753 1456.34 50.8678 1052.99 50.8678C649.647 50.8678 322.672 418.753 322.672 872.562C322.672 1326.37 649.647 1694.26 1052.99 1694.26Z" fill="url(#paint0_linear)"/>
<path d="M1398.1 3248.19C2554.65 3248.19 3492.22 2370.65 3492.22 1288.15C3492.22 205.655 2554.65 -671.882 1398.1 -671.882C241.547 -671.882 -696.023 205.655 -696.023 1288.15C-696.023 2370.65 241.547 3248.19 1398.1 3248.19Z" fill="#272727"/>
<path d="M1052.99 1514.94C1368.31 1514.94 1623.93 1227.34 1623.93 872.562C1623.93 517.788 1368.31 230.188 1052.99 230.188C737.67 230.188 482.051 517.788 482.051 872.562C482.051 1227.34 737.67 1514.94 1052.99 1514.94Z" fill="#DDE1EC"/>
<path opacity="0.3" d="M1069.13 343.682H1036.85V911.15H1069.13V343.682Z" fill="#535461"/>
<g opacity="0.1">
<path opacity="0.1" d="M1543.23 858.943H1087.29V904.34H1543.23V858.943Z" fill="black"/>
<path opacity="0.1" d="M765.386 689.097L746.668 729.314L1033.55 898.346L1052.27 858.129L765.386 689.097Z" fill="black"/>
<path opacity="0.1" d="M1052.99 949.738C1086.42 949.738 1113.52 919.25 1113.52 881.641C1113.52 844.033 1086.42 813.545 1052.99 813.545C1019.57 813.545 992.468 844.033 992.468 881.641C992.468 919.25 1019.57 949.738 1052.99 949.738Z" fill="black"/>
</g>
<path d="M1543.23 849.863H1087.29V895.26H1543.23V849.863Z" fill="#535461"/>
<path d="M1052.4 849.102L765.519 680.07L746.8 720.287L1033.69 889.319L1052.4 849.102Z" fill="#535461"/>
<path d="M1052.99 940.658C1086.42 940.658 1113.52 910.17 1113.52 872.562C1113.52 834.953 1086.42 804.466 1052.99 804.466C1019.57 804.466 992.468 834.953 992.468 872.562C992.468 910.17 1019.57 940.658 1052.99 940.658Z" fill="#535461"/>
<g opacity="0.1">
<path opacity="0.1" d="M526.395 949.738C526.395 594.956 782.007 307.364 1097.34 307.364C1185.84 307.275 1273.15 330.375 1352.34 374.832C1431.54 419.289 1500.44 483.882 1553.6 563.496C1456.44 364.837 1268.82 230.188 1052.95 230.188C737.623 230.188 482.011 517.781 482.011 872.562C481.826 1011.94 522.113 1147.56 596.744 1258.8C550.461 1164.12 526.259 1057.79 526.395 949.738V949.738Z" fill="black"/>
</g>
<path d="M1580.52 400.02C1573.74 392.688 1516.68 440.877 1516.68 440.877C1516.68 440.877 1496.37 445.054 1501.21 460.739C1506.05 476.424 1479.93 564.268 1479.93 564.268L1469.29 547.539C1470.32 527.904 1465.52 513.99 1460.84 505.319C1460.46 504.615 1460.07 503.934 1459.69 503.299L1461.55 502.572C1460.84 491.859 1445.61 475.538 1437.52 467.548C1437.52 466.391 1437.52 465.279 1437.52 464.098C1438.02 451.296 1442.58 437.79 1437.52 426.191C1431.79 412.958 1415.02 406.307 1413.61 391.78C1412.77 383.109 1417.97 375.278 1420.27 366.925C1425.76 346.95 1414.36 326.567 1403.46 309.361C1399.77 302.91 1395.28 297.086 1390.13 292.065C1385.22 288.025 1379.83 284.785 1374.11 282.44C1358.15 275.177 1341.83 271.522 1325.37 266.551C1309.57 261.83 1295.01 259.583 1278.97 265.507C1275.16 266.662 1271.69 268.906 1268.88 272.022C1265.07 276.834 1264.56 283.689 1262.06 289.431C1258.03 298.67 1249.33 304.186 1241.64 310.11C1233.96 316.034 1226.25 324.161 1226.21 334.375C1226.21 348.879 1240.94 358.004 1245.86 371.51C1250.46 384.085 1245.86 398.09 1243.3 411.346C1242.23 415.631 1242.12 420.148 1243 424.489C1244.01 427.724 1245.54 430.724 1247.52 433.341C1250.56 437.881 1253.83 442.103 1257.08 446.416L1255.58 447.074C1228.51 443.942 1211.1 482.62 1211.1 482.62C1212.35 482.915 1213.54 483.256 1214.71 483.642L1213.56 485.322C1205.38 497.276 1198.69 510.435 1193.69 524.431L1171.5 557.889C1171.5 557.889 1166.66 474.222 1178.28 455.405C1189.9 436.587 1167.64 425.079 1167.64 425.079C1167.64 425.079 1119.22 364.428 1112.51 369.649C1105.79 374.869 1128.95 440.764 1149.26 451.228C1149.26 451.228 1151.28 472.134 1147.25 485.73C1144.81 494.333 1131.77 585.082 1131.77 585.082C1131.77 585.082 1120.17 661.418 1173.37 623.67C1207.93 599.201 1230.27 557.072 1241.64 530.605C1242.44 528.744 1243.18 526.966 1243.88 525.271C1244.41 528.078 1244.77 530.922 1244.95 533.783L1246.97 621.241C1247.48 642.874 1243.28 664.319 1234.74 683.708L1211.04 737.799L1213.68 738.707L1212.09 741.295C1196.47 767.149 1169.92 825.28 1224.58 854.902L1297.21 865.366L1293.33 886.272C1293.33 886.272 1263.35 950.055 1254.64 993.977C1249.22 1020.87 1240.77 1046.88 1229.48 1071.36L1231.72 1072.7C1231.25 1073.29 1230.77 1073.9 1230.31 1074.54C1225.9 1080.11 1222.99 1086.97 1221.91 1094.33L1212.07 1110.04C1212.07 1110.04 1208.19 1174.86 1215.94 1190.57C1220.18 1199.15 1234.24 1204.6 1246.2 1207.78C1263.96 1212.52 1278.28 1191.89 1268.86 1174.89L1268.74 1174.66H1268.56C1266.54 1164.1 1260.37 1131.35 1262.38 1118.91C1262.95 1115.37 1263.47 1111.85 1263.74 1108.27C1264.22 1103.55 1265.49 1098.99 1267.49 1094.8C1267.81 1094.1 1268.15 1093.42 1268.5 1092.74L1269.55 1093.24C1272.79 1094.8 1276 1096.28 1279.05 1097.57C1274.33 1102.41 1270.98 1112.42 1275.01 1133.01C1275.01 1133.01 1275.4 1184.51 1278.89 1192.61C1282.38 1200.72 1321.43 1211.43 1328.21 1203.08C1334.99 1194.72 1323.86 1165.94 1323.86 1165.94L1323.51 1166.22C1321.27 1149.53 1318.51 1119.66 1325.31 1107.9C1328.05 1103.16 1330.72 1098.26 1333.1 1093.67L1334.57 1090.83C1347.2 1097.91 1360.55 1103.25 1367.86 1099.55C1367.86 1099.55 1399.77 1015.88 1397.84 1005.44C1395.9 994.999 1447.16 876.806 1447.16 876.806C1447.16 876.806 1490.68 822.329 1437.5 784.786C1420.61 772.824 1408.31 764.788 1399.37 759.363L1391.88 715.328C1388.04 692.242 1388.72 668.488 1393.9 645.733L1401.97 611.095L1402.64 608.144C1402.64 608.144 1422.95 561.09 1421.98 539.117C1421.91 537.411 1422.08 535.701 1422.49 534.056C1422.71 535.1 1422.95 536.189 1423.22 537.324C1428.55 560.161 1435.58 582.454 1444.24 603.968C1459.67 643.146 1482.57 640.036 1495.12 634.475C1497.8 633.305 1500.19 631.402 1502.06 628.938C1503.93 626.473 1505.22 623.524 1505.83 620.356C1510.35 595.978 1522.76 527.677 1523.54 508.815C1524.25 494.065 1525.86 479.389 1528.39 464.893C1560.22 443.942 1587.3 407.351 1580.52 400.02Z" fill="url(#paint1_linear)"/>
<path d="M1343.69 1070.13C1343.69 1070.13 1339.43 1079.73 1333.6 1091.26C1331.32 1095.8 1328.78 1100.68 1326.18 1105.38C1316.96 1121.98 1326.18 1174.84 1326.18 1174.84L1306 1177.95L1285.83 1166.6L1282.13 1128.24V1100.18L1305.13 1071.24L1315.22 1058.71L1343.69 1070.13Z" fill="#F8BDC5"/>
<g opacity="0.1">
<path opacity="0.1" d="M1343.69 1070.13C1343.69 1070.13 1339.43 1079.73 1333.6 1091.26C1324.69 1085.91 1316.08 1079.95 1307.82 1073.42L1306.04 1072.02L1305.09 1071.24L1315.18 1058.71L1343.69 1070.13Z" fill="black"/>
</g>
<path d="M1442.32 876.239C1442.32 876.239 1393.48 993.387 1395.33 1003.76C1397.19 1014.13 1366.77 1097.07 1366.77 1097.07C1359.83 1100.75 1347.08 1095.46 1335.05 1088.45C1325.99 1083.01 1317.23 1076.95 1308.83 1070.29L1307.05 1068.88L1305.98 1068.02L1386.15 818.153L1315.22 759.613L1309.98 755.277L1278.26 728.947L1375.1 748.649C1375.1 748.649 1378.47 748.173 1396.28 759.386C1404.84 764.766 1416.72 772.824 1433.14 784.945C1483.76 822.33 1442.32 876.239 1442.32 876.239Z" fill="#5E52AD"/>
<g opacity="0.03">
<path opacity="0.03" d="M1442.32 876.239C1442.32 876.239 1393.48 993.387 1395.33 1003.76C1397.19 1014.13 1366.77 1097.07 1366.77 1097.07C1359.83 1100.75 1347.08 1095.46 1335.05 1088.45C1325.99 1083.01 1317.23 1076.95 1308.83 1070.29L1307.05 1068.88L1305.98 1068.02L1386.15 818.153L1315.22 759.613L1309.98 755.277L1278.26 728.947L1375.1 748.649C1375.1 748.649 1378.47 748.173 1396.28 759.386C1404.84 764.766 1416.72 772.824 1433.14 784.945C1483.76 822.33 1442.32 876.239 1442.32 876.239Z" fill="black"/>
</g>
<path d="M1293.94 1090.86C1293.94 1090.86 1269.97 1086.7 1278.28 1130.26C1278.28 1130.26 1278.64 1181.33 1281.97 1189.28C1285.3 1197.22 1322.52 1207.94 1328.96 1199.65C1335.4 1191.37 1324.8 1162.86 1324.8 1162.86C1324.8 1162.86 1297.63 1185.15 1290.24 1161.29C1282.86 1137.43 1293.94 1090.86 1293.94 1090.86Z" fill="#5D3E53"/>
<path d="M1277.33 1082.57C1274.72 1085.37 1272.59 1088.7 1271.06 1092.38C1269.16 1096.54 1267.94 1101.07 1267.49 1105.72C1267.25 1109.26 1266.74 1112.78 1266.22 1116.28C1263.92 1131.06 1272.73 1174.84 1272.73 1174.84L1237.71 1181.06L1224.82 1165.51L1222.05 1131.3C1225.5 1119.58 1227.36 1107.33 1227.58 1094.99C1227.58 1086.07 1231.62 1078.1 1235.65 1072.29C1238.39 1068.41 1241.52 1064.91 1244.99 1061.87C1244.99 1061.87 1284.72 1075.31 1277.33 1082.57Z" fill="#F8BDC5"/>
<g opacity="0.1">
<path opacity="0.1" d="M1277.33 1082.57C1274.72 1085.37 1272.59 1088.7 1271.06 1092.38C1256.71 1085.09 1241.64 1075.9 1236.16 1072.49L1235.73 1072.24C1238.47 1068.37 1241.6 1064.87 1245.07 1061.82C1245.07 1061.82 1284.72 1075.31 1277.33 1082.57Z" fill="black"/>
</g>
<path d="M1390.69 845.142C1390.69 845.142 1367.67 893.876 1352.91 934.302C1343.22 960.86 1323.21 1024.1 1310.54 1064.37L1308.68 1070.31C1303.12 1088.13 1299.4 1100.18 1299.4 1100.18C1296.95 1100.2 1294.51 1099.8 1292.16 1098.98C1289.98 1098.32 1287.54 1097.44 1284.94 1096.35L1282.01 1095.1C1279.11 1093.83 1275.96 1092.35 1272.96 1090.81C1258.31 1083.46 1242.69 1073.88 1237.02 1070.38L1234.89 1069.04C1245.7 1044.67 1253.77 1018.87 1258.91 992.252C1267.21 948.716 1295.77 885.568 1295.77 885.568L1299.46 864.822L1230.35 854.448C1178.28 825.167 1203.58 767.444 1218.44 741.817C1220.98 737.369 1223.72 733.073 1226.65 728.947L1281.95 742.566C1281.95 742.566 1290.67 745.699 1310.04 755.346L1318.93 759.885C1329.79 765.492 1343.14 772.71 1359.28 781.971C1413.71 812.932 1390.69 845.142 1390.69 845.142Z" fill="#5E52AD"/>
<path d="M1272.39 1171.73C1274.36 1175.47 1275.31 1179.78 1275.1 1184.12C1274.9 1188.46 1273.56 1192.64 1271.25 1196.13C1268.95 1199.61 1265.77 1202.25 1262.13 1203.71C1258.49 1205.17 1254.55 1205.38 1250.8 1204.33C1239.49 1201.17 1226.07 1195.77 1222.03 1187.26C1214.67 1171.71 1218.34 1107.43 1218.34 1107.43L1228.03 1091.35C1228.03 1091.35 1222.96 1162.38 1234.95 1168.53C1246.93 1174.68 1272.27 1171.41 1272.27 1171.41L1272.39 1171.73Z" fill="#5D3E53"/>
<path d="M1282.2 270.115C1278.51 271.267 1275.17 273.5 1272.51 276.584C1268.88 281.351 1268.48 288.16 1266.02 293.858C1262.18 302.937 1253.91 308.498 1246.57 314.287C1239.22 320.075 1231.9 328.224 1231.86 338.347C1231.86 352.738 1245.98 361.772 1250.58 375.142C1254.96 387.626 1250.58 401.495 1248.14 414.638C1247.12 418.893 1247.03 423.361 1247.86 427.667C1248.82 430.861 1250.28 433.836 1252.18 436.451C1261.07 450.07 1272.13 462.146 1278.08 477.649C1282.6 489.43 1283.85 502.436 1285.04 515.216C1286.75 533.602 1288.47 552.328 1285.36 570.487C1285.06 571.573 1285.06 572.738 1285.36 573.824C1285.89 574.865 1286.73 575.668 1287.72 576.094C1293.59 579.303 1299.98 581.143 1306.5 581.505C1313.02 581.866 1319.54 580.741 1325.66 578.197C1331.78 575.652 1337.38 571.741 1342.13 566.699C1346.87 561.657 1350.66 555.587 1353.27 548.855C1357.31 538.573 1358.86 526.157 1366.85 519.483C1367.78 518.615 1368.9 518.043 1370.1 517.826C1371.98 517.885 1373.81 518.572 1375.34 519.801C1385.71 526.111 1398.28 526.293 1409.84 523.705C1416.82 522.139 1423.96 519.347 1428.58 513.218C1437.68 501.052 1432.62 482.87 1433.22 467.004C1433.71 454.315 1438.04 440.923 1433.22 429.437C1427.78 416.317 1411.78 409.735 1410.45 395.389C1409.64 386.809 1414.6 379.023 1416.8 370.761C1422.03 350.945 1411.17 330.743 1400.8 313.696C1397.31 307.337 1393.04 301.567 1388.11 296.559C1383.46 292.574 1378.32 289.363 1372.86 287.025C1357.67 279.83 1342.17 276.198 1326.46 271.295C1311.41 266.46 1297.55 264.213 1282.2 270.115Z" fill="#85555C"/>
<path d="M1359.36 566.242H1305.9V468.774C1307.49 459.413 1308.42 449.926 1308.68 440.401C1308.68 437.2 1308.68 433.932 1308.68 430.64C1308.18 419.019 1306.04 407.419 1300.43 400.337C1285.69 381.679 1348.35 384.789 1348.35 384.789C1350.27 393.357 1352.77 401.749 1355.81 409.894C1360.35 422.603 1366.39 434.566 1373.77 445.463C1380.26 455.158 1388.57 463.119 1398.12 468.774C1434.92 489.521 1359.36 566.242 1359.36 566.242Z" fill="#F8BDC5"/>
<g opacity="0.1">
<path opacity="0.1" d="M1355.75 409.894C1350.32 417.857 1343.06 423.999 1334.76 427.656C1326.45 431.312 1317.41 432.344 1308.62 430.64C1308.12 419.019 1305.98 407.419 1300.37 400.337C1285.62 381.679 1348.29 384.789 1348.29 384.789C1350.21 393.357 1352.71 401.749 1355.75 409.894V409.894Z" fill="black"/>
</g>
<path d="M1316.96 428.37C1343.93 428.37 1365.8 403.767 1365.8 373.417C1365.8 343.067 1343.93 318.463 1316.96 318.463C1289.98 318.463 1268.11 343.067 1268.11 373.417C1268.11 403.767 1289.98 428.37 1316.96 428.37Z" fill="#F8BDC5"/>
<path d="M1519.69 467.753C1517.29 482.132 1515.76 496.677 1515.09 511.289C1514.34 529.97 1502.52 597.703 1498.2 621.877C1497.66 624.977 1496.44 627.878 1494.66 630.321C1492.88 632.764 1490.59 634.675 1488 635.882C1476.01 641.398 1454.22 644.485 1439.58 605.648C1431.32 584.277 1424.62 562.187 1419.54 539.594C1417.75 532 1416.4 524.281 1415.51 516.487L1447.79 496.784C1450.83 499.983 1453.4 503.697 1455.41 507.793C1459.87 516.396 1464.45 530.197 1463.48 549.65L1473.57 566.243C1473.57 566.243 1498.45 479.147 1493.75 463.599C1489.05 448.05 1508.49 443.896 1508.49 443.896C1508.49 443.896 1562.86 396.229 1569.32 403.47C1575.78 410.711 1550.09 447.006 1519.69 467.753Z" fill="#F8BDC5"/>
<path d="M1255.22 509.223C1252.7 517.333 1249.81 525.289 1246.55 533.057C1235.69 559.319 1214.43 601.153 1181.5 625.35C1130.83 662.667 1141.88 586.989 1141.88 586.989C1141.88 586.989 1154.29 497.011 1156.63 488.499C1160.32 475.016 1158.46 454.292 1158.46 454.292C1139.12 443.919 1117.01 378.615 1123.44 373.417C1129.88 368.219 1175.9 428.37 1175.9 428.37C1175.9 428.37 1197.1 439.72 1185.98 458.446C1174.87 477.173 1179.53 560.046 1179.53 560.046L1200.85 526.928C1205.6 513.109 1211.97 500.07 1219.8 488.159C1223.83 481.962 1226.65 478.217 1226.65 478.217L1255.22 509.223Z" fill="#F8BDC5"/>
<g opacity="0.1">
<path opacity="0.1" d="M1455.43 507.793C1448.66 510.608 1422.41 522.525 1419.5 539.571C1417.71 531.977 1416.36 524.258 1415.47 516.464L1447.75 496.762C1450.81 499.962 1453.4 503.685 1455.43 507.793Z" fill="black"/>
</g>
<g opacity="0.1">
<path opacity="0.1" d="M1255.22 509.223C1252.7 517.333 1249.81 525.289 1246.55 533.057C1245.3 522.797 1240.15 496.557 1219.8 488.091C1223.83 481.894 1226.65 478.149 1226.65 478.149L1255.22 509.223Z" fill="black"/>
</g>
<g opacity="0.1">
<path opacity="0.1" d="M1359.36 566.242H1305.9V468.774C1307.49 459.413 1308.42 449.926 1308.68 440.401C1319.68 452.34 1316.96 470.84 1316.96 470.84L1345.52 543.476L1359.36 479.261L1354.76 470.976L1373.73 445.599C1380.22 455.294 1388.53 463.255 1398.08 468.91C1434.92 489.521 1359.36 566.242 1359.36 566.242Z" fill="black"/>
</g>
<g opacity="0.1">
<path opacity="0.1" d="M1397.13 765.265C1397.13 765.265 1355.25 761.52 1318.91 759.749L1315.26 759.568C1310.1 759.341 1305.17 759.159 1300.35 759.023C1265.09 758.069 1225.2 744.201 1218.42 741.772C1220.97 737.338 1223.71 733.057 1226.65 728.947L1281.95 742.566C1281.95 742.566 1290.67 745.699 1310.04 755.346L1278.26 728.947L1375.1 748.649C1375.1 748.649 1378.47 748.173 1396.28 759.386L1397.13 765.265Z" fill="black"/>
</g>
<path d="M1359.36 483.301L1354.76 475.016L1375.22 447.483C1375.22 447.483 1417.41 470.749 1428.46 465.642C1428.46 465.642 1455.19 490.61 1456.1 505.047C1456.1 505.047 1417.41 519.551 1418.31 541.365C1419.22 563.178 1399.95 609.779 1399.95 609.779L1391.88 647.05C1386.92 669.638 1386.23 693.148 1389.87 716.054L1397.23 762.201C1397.23 762.201 1339.17 757.025 1300.39 755.981C1261.62 754.937 1217.46 738.367 1217.46 738.367L1240.07 684.821C1248.23 665.497 1252.22 644.283 1251.73 622.898L1249.71 536.212C1249.71 536.212 1247.88 492.676 1217.44 485.412C1217.44 485.412 1234.02 447.051 1259.8 450.161C1259.8 450.161 1297.37 432.524 1308.52 444.441C1319.68 456.358 1316.94 475.039 1316.94 475.039L1345.5 547.675L1359.36 483.301Z" fill="#28DF99"/>
<g opacity="0.1">
<path opacity="0.1" d="M1281.71 362.09C1289.12 362.09 1294.93 353.26 1302.33 353.714C1306.16 353.941 1309.45 356.688 1312.62 359.162C1324.59 368.487 1337.91 375.399 1351.98 379.591C1357.45 381.225 1363.24 382.451 1368.72 380.953C1374.21 379.455 1379.36 374.597 1379.98 368.264C1380.13 365.473 1379.81 362.675 1379.01 360.025C1372.8 335.674 1358.75 314.803 1339.59 301.484C1331.93 296.196 1322.56 292.155 1314.07 295.469C1306.4 298.443 1301.46 306.524 1295.91 313.174C1291.73 318.154 1286.98 322.489 1281.79 326.067C1277.76 328.814 1271.7 330.607 1269.38 335.646C1265.01 345.043 1271.89 361.999 1281.71 362.09Z" fill="black"/>
</g>
<path d="M1281.71 360.025C1289.12 360.025 1294.93 351.195 1302.33 351.649C1306.16 351.876 1309.45 354.622 1312.62 357.096C1324.59 366.421 1337.91 373.334 1351.98 377.525C1357.45 379.16 1363.24 380.385 1368.72 378.887C1374.21 377.389 1379.36 372.532 1379.98 366.199C1380.13 363.407 1379.81 360.609 1379.01 357.959C1372.8 333.609 1358.75 312.737 1339.59 299.419C1331.93 294.13 1322.56 290.09 1314.07 293.404C1306.4 296.377 1301.46 304.458 1295.91 311.109C1291.73 316.089 1286.98 320.424 1281.79 324.002C1277.76 326.748 1271.7 328.541 1269.38 333.581C1265.01 343.069 1271.89 359.911 1281.71 360.025Z" fill="#85555C"/>
<path opacity="0.05" d="M1259.38 596.818C1259.38 596.818 1304.53 615.476 1334.02 600.972L1348.77 602.016C1348.77 602.016 1373.28 621.355 1399.21 612.707" fill="black"/>
<path opacity="0.05" d="M1473.17 565.72C1473.17 565.72 1465.8 585.423 1469.48 591.642Z" fill="black"/>
<path opacity="0.05" d="M1179.2 559.501C1179.2 559.501 1182.9 579.203 1179.2 585.423Z" fill="black"/>
<path d="M1943.46 1008.46C1943.46 1008.46 1859.05 1103.43 1906.7 1244.34C1954.35 1385.26 1825.03 1619.6 1825.03 1619.6C1825.03 1619.6 1826.42 1619.37 1829.07 1618.87C2002.43 1584.44 2088.55 1361.38 1992.16 1195.66C1956.23 1134.03 1926.81 1061.76 1943.46 1008.46Z" fill="#272727"/>
<path opacity="0.1" d="M1943.46 1010.05C1943.46 1010.05 1859.05 1105.02 1906.7 1245.93C1954.35 1386.85 1825.03 1621.17 1825.03 1621.17C1825.03 1621.17 1826.42 1620.94 1829.07 1620.44C2002.43 1586.01 2088.55 1362.95 1992.16 1197.22C1956.23 1135.62 1926.81 1063.34 1943.46 1010.05Z" fill="black"/>
<path d="M1943.46 1008.46C1943.46 1008.46 1895.81 1124.86 1943.46 1219.83C1991.11 1314.8 1951.53 1581.31 1825.01 1619.6" stroke="#535461" stroke-miterlimit="10"/>
<path d="M2093.8 1392.57C2093.8 1392.57 1997.48 1375.32 1988.71 1472.42C1979.93 1569.53 1803.45 1582.99 1803.45 1582.99L1806.75 1585.46C1952.41 1693.05 2091.68 1653.99 2070.68 1511.12C2062.93 1458.03 2063.58 1404.69 2093.8 1392.57Z" fill="#272727"/>
<path d="M2093.8 1392.57C2093.8 1392.57 2019.03 1411.02 2025.2 1487.52C2031.38 1564.01 1914.24 1655.69 1803.53 1583.01" stroke="#535461" stroke-miterlimit="10"/>
<path d="M2009.07 1586.53C2009.07 1586.53 1933.21 1569.46 1912.97 1546.69C1892.74 1523.92 1801.71 1484.11 1791.6 1512.64C1781.5 1541.18 1655.06 1637.83 1741.03 1654.9C1826.99 1671.97 1943.32 1677.59 1968.59 1666.25C1993.87 1654.9 2009.07 1586.53 2009.07 1586.53Z" fill="#A8A8A8"/>
<path opacity="0.2" d="M1741.03 1644.25C1827.01 1661.32 1943.32 1666.95 1968.59 1655.6C1987.86 1646.93 2001.24 1605.3 2006.52 1585.91L2009.05 1586.5C2009.05 1586.5 1993.87 1654.78 1968.59 1666.15C1943.32 1677.53 1826.99 1671.85 1741.03 1654.81C1716.21 1649.88 1709.11 1638.3 1711.79 1623.66C1713.89 1633.22 1722.55 1640.57 1741.03 1644.25Z" fill="black"/>
</g>
<defs>
<linearGradient id="paint0_linear" x1="1052.99" y1="1694.26" x2="1052.99" y2="50.8678" gradientUnits="userSpaceOnUse">
<stop stop-color="#808080" stop-opacity="0.25"/>
<stop offset="0.54" stop-color="#808080" stop-opacity="0.12"/>
<stop offset="1" stop-color="#808080" stop-opacity="0.1"/>
</linearGradient>
<linearGradient id="paint1_linear" x1="353060" y1="564655" x2="353060" y2="169936" gradientUnits="userSpaceOnUse">
<stop stop-color="#808080" stop-opacity="0.25"/>
<stop offset="0.54" stop-color="#808080" stop-opacity="0.12"/>
<stop offset="1" stop-color="#808080" stop-opacity="0.1"/>
</linearGradient>
<clipPath id="clip0">
<rect width="2094" height="1753" fill="white"/>
</clipPath>
</defs>
</svg>
